# File created by Blade
# Date/Time:  Fri Jan 16 19:49:56 2015
# Frame Rate: 120.000 fps
#------------------------------------------------------
:FULLY-SPECIFIED
:DEGREES
832
root 18.836758 35.591456 -20.769226 -171.359913 -4.212119 -178.507765
Spine -22.440312 -3.480923 3.052952
Head 9.938920 -0.951229 0.257343
LeftShoulder -9.015318 -40.084264 18.447867
LeftArm 10.234127 14.404709 -4.352899
LeftForeArm 24.406178 -0.000000 -0.104021
LeftHand -6.002907 -0.000000 -2.914103
LeftHandThumb1 -26.253704 0.000000 33.147579
RightShoulder -10.714622 0.995383 -12.075407
RightArm 10.782437 29.190373 4.136290
RightForeArm -42.675691 -0.000000 5.785451
RightHand -3.018513 0.000000 11.235559
RightHandThumb1 -24.326973 -0.000000 -32.862282
LeftUpLeg -1.644708 3.657744 3.952787
LeftLeg -5.624839 -0.000000 0.000000
LeftFoot -19.521161 25.184751 -13.394455
LeftToeBase 27.343692 -0.000000 -0.000000
RightUpLeg -1.389672 -8.115327 -3.504439
RightLeg -1.657515 -0.000000 0.000000
RightFoot -17.972681 -19.849845 18.679568
RightToeBase 22.493437 -0.000000 -0.000000
833
root 18.844250 35.594415 -20.792318 -171.289755 -4.169195 -178.411899
Spine -22.535961 -3.392951 3.104175
Head 10.035132 -0.988991 0.313229
LeftShoulder -9.191017 -40.066751 18.701240
LeftArm 10.159120 14.224772 -4.189517
LeftForeArm 24.371486 -0.000000 -0.227145
LeftHand -5.947766 -0.000000 -2.902001
LeftHandThumb1 -26.253704 0.000000 33.147579
RightShoulder -10.849297 1.165816 -12.197905
RightArm 10.526645 29.455779 3.946872
RightForeArm -42.654988 -0.000000 5.689440
RightHand -3.148979 -0.000000 11.098218
RightHandThumb1 -24.326973 -0.000000 -32.862282
LeftUpLeg -1.605563 3.722477 4.052819
LeftLeg -5.762672 -0.000000 0.000000
LeftFoot -19.487845 25.198704 -13.421703
LeftToeBase 27.320535 -0.000000 -0.000000
RightUpLeg -1.452914 -8.364112 -3.338339
RightLeg -1.698716 -0.000000 0.000000
RightFoot -17.862397 -19.904291 18.660656
RightToeBase 22.455907 -0.000000 -0.000000
834
root 18.853723 35.595663 -20.813779 -171.188882 -4.100813 -178.350954
Spine -22.655308 -3.326585 3.090892
Head 10.085663 -1.009874 0.439611
LeftShoulder -9.426223 -40.042018 19.046748
LeftArm 10.030589 13.884503 -4.077977
LeftForeArm 24.559115 -0.000000 -0.218466
LeftHand -5.967458 0.000000 -2.921787
LeftHandThumb1 -26.253704 0.000000 33.147579
RightShoulder -10.992573 1.367223 -12.266521
RightArm 10.417273 30.002970 3.872704
RightForeArm -43.173573 0.000000 5.623605
RightHand -3.329458 -0.000000 11.125064
RightHandThumb1 -24.326973 -0.000000 -32.862282
LeftUpLeg -1.595338 3.848459 4.110334
LeftLeg -5.901128 -0.000000 0.000000
LeftFoot -19.430188 25.175401 -13.444680
LeftToeBase 27.240711 -0.000000 -0.000000
RightUpLeg -1.572105 -8.560738 -3.194717
RightLeg -1.706058 -0.000000 0.000000
RightFoot -17.856405 -20.006592 18.742862
RightToeBase 22.427221 -0.000000 -0.000000
835
root 18.863465 35.595690 -20.834609 -171.119159 -4.048881 -178.301081
Spine -22.746061 -3.330378 3.088652
Head 10.169211 -0.896531 0.579939
LeftShoulder -9.693128 -40.006170 19.389526
LeftArm 9.911058 13.625287 -3.945794
LeftForeArm 24.644701 -0.000000 -0.248422
LeftHand -5.960073 0.000000 -2.937216
LeftHandThumb1 -26.253704 0.000000 33.147579
RightShoulder -11.038339 1.569469 -12.323842
RightArm 10.236442 30.416944 3.742511
RightForeArm -43.431521 -0.000000 5.551295
RightHand -3.400903 -0.000000 11.067188
RightHandThumb1 -24.326973 -0.000000 -32.862282
LeftUpLeg -1.553360 3.929815 4.166327
LeftLeg -6.041475 -0.000000 0.000000
LeftFoot -19.378242 25.160878 -13.477283
LeftToeBase 27.201006 -0.000000 -0.000000
RightUpLeg -1.641770 -8.812846 -3.058432
RightLeg -1.742539 -0.000000 0.000000
RightFoot -17.815258 -20.065287 18.693317
RightToeBase 22.398128 -0.000000 -0.000000
836
root 18.872394 35.592167 -20.852882 -171.044747 -4.005455 -178.298144
Spine -22.818717 -3.277379 3.005369
Head 10.212872 -0.885206 0.707087
LeftShoulder -9.856147 -40.014736 19.631792
LeftArm 9.843605 13.388246 -3.747247
LeftForeArm 24.891278 0.000000 -0.291951
LeftHand -6.017098 0.000000 -3.060867
LeftHandThumb1 -26.253704 0.000000 33.147579
RightShoulder -11.151732 1.825398 -12.405765
RightArm 9.924883 30.409565 3.510293
RightForeArm -43.258761 -0.000000 5.589660
RightHand -3.422616 0.000000 11.140908
RightHandThumb1 -24.326973 -0.000000 -32.862282
LeftUpLeg -1.530034 3.966363 4.176185
LeftLeg -6.161426 -0.000000 0.000000
LeftFoot -19.342931 25.188779 -13.490567
LeftToeBase 27.179357 -0.000000 -0.000000
RightUpLeg -1.712585 -9.114856 -2.967143
RightLeg -1.790891 -0.000000 0.000000
RightFoot -17.853589 -20.167635 18.405409
RightToeBase 22.909063 -0.000000 -0.000000
